# xmcd
#
# Track frame offsets: 
#        150
#        10697
#        22617
#        32940
#        45730
#        74595
#        90752
#        111385
#        125730
#        138420
#        149580
#        172317
#        193830
#        212120
#        229595
#        238655
#        252377
#        263212
#        275047
#        289952
#
# Disc length: 4070 seconds
#
# Revision: 0
# Processed by: cddbd v1.5.2PL0 Copyright (c) Steve Scherf et al.
# Submitted via: ExactAudioCopy v0.99pb3
#
DISCID=380fe414
DTITLE=Bob Cook - Love Is a Verb [CD]
DYEAR=2000
DGENRE=Alt-country
TTITLE0=You've Heard My Voice
TTITLE1=Rose
TTITLE2=2:19 Blues
TTITLE3=Lonely Lady
TTITLE4=Love Is a Verb
TTITLE5=Jacob's Grave
TTITLE6=Coal Tattoo
TTITLE7=Affair on 8th Ave
TTITLE8=Flora- Lily of the West
TTITLE9=That's the Way It's Gonna Be
TTITLE10=Kretchma
TTITLE11=Babe
TTITLE12=Vincent
TTITLE13=Desperados
TTITLE14=Great River Road
TTITLE15=Everytime
TTITLE16=Me and My Uncle
TTITLE17=Prairie Schooner
TTITLE18=Mariah
TTITLE19=Gift of Song
EXTD=
EXTT0=
EXTT1=
EXTT2=
EXTT3=
EXTT4=
EXTT5=
EXTT6=
EXTT7=
EXTT8=
EXTT9=
EXTT10=
EXTT11=
EXTT12=
EXTT13=
EXTT14=
EXTT15=
EXTT16=
EXTT17=
EXTT18=
EXTT19=
PLAYORDER=
